<svg width="360" height="360" viewBox="0 0 360 360" fill="none" xmlns="http://www.w3.org/2000/svg">
    <path fill-rule="evenodd" clip-rule="evenodd"
          d="M145.487 119.086C155.672 113.303 167.45 110 180 110C192.55 110 204.328 113.303 214.513 119.086C229.929 108.227 240 90.2895 240 70C240 36.8629 213.137 10 180 10C146.863 10 120 36.8629 120 70C120 90.2895 130.071 108.227 145.487 119.086ZM119.086 145.487C108.227 130.071 90.2895 120 70 120C36.8629 120 10 146.863 10 180C10 213.137 36.8629 240 70 240C90.2895 240 108.227 229.929 119.086 214.513C113.303 204.328 110 192.55 110 180C110 167.45 113.303 155.672 119.086 145.487ZM145.487 240.914C130.071 251.773 120 269.71 120 290C120 323.137 146.863 350 180 350C213.137 350 240 323.137 240 290C240 269.71 229.929 251.773 214.513 240.914C204.328 246.697 192.55 250 180 250C167.45 250 155.672 246.697 145.487 240.914ZM240.914 214.513C251.773 229.929 269.71 240 290 240C323.137 240 350 213.137 350 180C350 146.863 323.137 120 290 120C269.71 120 251.773 130.071 240.914 145.487C246.697 155.672 250 167.45 250 180C250 192.55 246.697 204.328 240.914 214.513Z"
          fill="#FF4D5B"/>
    <circle cx="180" cy="180" r="50" fill="#FF4D5B"/>
</svg>
